<?xml version="1.0" encoding="UTF-8" standalone="no"?>
<svg
   xmlns:dc="http://purl.org/dc/elements/1.1/"
   xmlns:cc="http://creativecommons.org/ns#"
   xmlns:rdf="http://www.w3.org/1999/02/22-rdf-syntax-ns#"
   xmlns:svg="http://www.w3.org/2000/svg"
   xmlns="http://www.w3.org/2000/svg"
   xmlns:sodipodi="http://sodipodi.sourceforge.net/DTD/sodipodi-0.dtd"
   xmlns:inkscape="http://www.inkscape.org/namespaces/inkscape"
   height="37.5pt"
   viewBox="0 0 37.5 37.5"
   width="37.5pt"
   version="1.1"
   id="svg6"
   sodipodi:docname="chip.svg"
   inkscape:version="0.92.5 (2060ec1f9f, 2020-04-08)">
  <metadata
     id="metadata12">
    <rdf:RDF>
      <cc:Work
         rdf:about="">
        <dc:format>image/svg+xml</dc:format>
        <dc:type
           rdf:resource="http://purl.org/dc/dcmitype/StillImage" />
        <dc:title></dc:title>
      </cc:Work>
    </rdf:RDF>
  </metadata>
  <defs
     id="defs10" />
  <sodipodi:namedview
     pagecolor="#ffffff"
     bordercolor="#666666"
     borderopacity="1"
     objecttolerance="10"
     gridtolerance="10"
     guidetolerance="10"
     inkscape:pageopacity="0"
     inkscape:pageshadow="2"
     inkscape:window-width="1920"
     inkscape:window-height="1023"
     id="namedview8"
     showgrid="false"
     inkscape:zoom="11.0625"
     inkscape:cx="7.235041"
     inkscape:cy="14.655643"
     inkscape:window-x="0"
     inkscape:window-y="0"
     inkscape:window-maximized="1"
     inkscape:current-layer="svg6"
     fit-margin-top="0"
     fit-margin-left="0"
     fit-margin-right="0"
     fit-margin-bottom="0" />
  <path
     d="M 10.986328,10.98633 H 26.513671 V 26.51367 H 10.986328 Z m 0,0"
     id="path2"
     inkscape:connector-curvature="0"
     style="fill:#000000;fill-opacity:0.57142861;stroke-width:0.07324219" />
  <path
     d="m 36.401366,15.4541 c 0.606823,0 1.098633,-0.49181 1.098633,-1.09863 0,-0.60682 -0.49181,-1.09863 -1.098633,-1.09863 h -3.295898 v -2.19727 h 3.295898 c 0.606823,0 1.098633,-0.49181 1.098633,-1.09863 0,-0.60682 -0.49181,-1.09863 -1.098633,-1.09863 h -3.295898 v -1.9043 c 0,-1.41363 -1.149845,-2.56348 -2.563477,-2.56348 H 28.637694 V 1.09863 C 28.637694,0.49181 28.145885,0 27.539062,0 26.932239,0 26.440429,0.49181 26.440429,1.09863 v 3.2959 H 24.243163 V 1.09863 C 24.243163,0.49181 23.751353,0 23.144531,0 22.537708,0 22.045898,0.49181 22.045898,1.09863 v 3.2959 H 19.848632 V 1.09863 C 19.848632,0.49181 19.356822,0 18.749999,0 18.143177,0 17.651367,0.49181 17.651367,1.09863 v 3.2959 H 15.454101 V 1.09863 C 15.454101,0.49181 14.962291,0 14.355468,0 13.748645,0 13.256836,0.49181 13.256836,1.09863 v 3.2959 H 11.05957 V 1.09863 C 11.05957,0.49181 10.56776,0 9.9609372,0 9.3541143,0 8.8623044,0.49181 8.8623044,1.09863 v 3.2959 H 6.9580076 c -1.4136314,0 -2.5634765,1.14985 -2.5634765,2.56348 v 1.9043 H 1.0986328 C 0.49180985,8.86231 0,9.35412 0,9.96094 c 0,0.60682 0.49180985,1.09863 1.0986328,1.09863 h 3.2958983 v 2.19727 H 1.0986328 C 0.49180985,13.25684 0,13.74865 0,14.35547 0,14.96229 0.49180985,15.4541 1.0986328,15.4541 h 3.2958983 v 2.19727 H 1.0986328 C 0.49180985,17.65137 0,18.14318 0,18.75 c 0,0.60682 0.49180985,1.09863 1.0986328,1.09863 H 4.3945311 V 22.0459 H 1.0986328 C 0.49180985,22.0459 0,22.53771 0,23.14453 c 0,0.60682 0.49180985,1.09863 1.0986328,1.09863 h 3.2958983 v 2.19727 H 1.0986328 C 0.49180985,26.44043 0,26.93224 0,27.53906 0,28.14589 0.49180985,28.6377 1.0986328,28.6377 h 3.2958983 v 1.90429 c 0,1.41363 1.1498451,2.56348 2.5634765,2.56348 h 1.9042968 v 3.2959 c 0,0.60682 0.4918099,1.09863 1.0986328,1.09863 0.6068228,0 1.0986328,-0.49181 1.0986328,-1.09863 v -3.2959 h 2.197266 v 3.2959 c 0,0.60682 0.491809,1.09863 1.098632,1.09863 0.606823,0 1.098633,-0.49181 1.098633,-1.09863 v -3.2959 h 2.197266 v 3.2959 c 0,0.60682 0.49181,1.09863 1.098632,1.09863 0.606823,0 1.098633,-0.49181 1.098633,-1.09863 v -3.2959 h 2.197266 v 3.2959 c 0,0.60682 0.49181,1.09863 1.098633,1.09863 0.606822,0 1.098632,-0.49181 1.098632,-1.09863 v -3.2959 h 2.197266 v 3.2959 c 0,0.60682 0.49181,1.09863 1.098633,1.09863 0.606823,0 1.098632,-0.49181 1.098632,-1.09863 v -3.2959 h 1.904297 c 1.413632,0 2.563477,-1.14985 2.563477,-2.56348 V 28.6377 h 3.295898 c 0.606823,0 1.098633,-0.49181 1.098633,-1.09864 0,-0.60682 -0.49181,-1.09863 -1.098633,-1.09863 h -3.295898 v -2.19727 h 3.295898 c 0.606823,0 1.098633,-0.49181 1.098633,-1.09863 0,-0.60682 -0.49181,-1.09863 -1.098633,-1.09863 h -3.295898 v -2.19727 h 3.295898 c 0.606823,0 1.098633,-0.49181 1.098633,-1.09863 0,-0.60682 -0.49181,-1.09863 -1.098633,-1.09863 H 33.105468 V 15.4541 Z m -7.690429,12.1582 c 0,0.60683 -0.49181,1.09864 -1.098633,1.09864 H 9.887695 c -0.6068229,0 -1.0986328,-0.49181 -1.0986328,-1.09864 V 9.8877 c 0,-0.60683 0.4918099,-1.09864 1.0986328,-1.09864 h 17.724609 c 0.606823,0 1.098633,0.49181 1.098633,1.09864 z m 0,0"
     id="path4"
     inkscape:connector-curvature="0"
     style="fill:#000000;stroke-width:0.07324219" />
  <path
     d="m 10.986328,10.98633 h 7.763671 V 18.75 h -7.763671 z m 0,0"
     id="path2-3"
     inkscape:connector-curvature="0"
     style="fill:#000000;stroke-width:0.03662109" />
  <path
     d="m 18.749999,18.75 h 7.763671 v 7.76367 h -7.763671 z m 0,0"
     id="path2-3-6"
     inkscape:connector-curvature="0"
     style="fill:#000000;stroke-width:0.03662109" />
</svg>
